<?xml version="1.0" encoding="utf-8"?>
<!-- Generator: Adobe Illustrator 22.0.0, SVG Export Plug-In . SVG Version: 6.00 Build 0)  -->
<svg version="1.1" id="Camada_1" xmlns="http://www.w3.org/2000/svg" xmlns:xlink="http://www.w3.org/1999/xlink" x="0px" y="0px"
	 viewBox="-309 190.1 99.8 24.9" style="enable-background:new -309 190.1 99.8 24.9;" xml:space="preserve">
<style type="text/css">
	.st0{fill:#FFFFFF;}
</style>
<g>
	<path class="st0" d="M-260.4,198.9c0-1.7-0.4-3.1-1.1-4.2c-0.8-1.2-2-1.8-3.5-1.8c-2.2,0-3.9,1.1-5.1,3.2c-1,1.8-1.6,3.8-1.6,6.2
		c0,1.7,0.4,3.1,1.1,4.1c0.8,1.1,2,1.7,3.5,1.7c1.2,0,2.4-0.4,3.4-1.1l1.2-1.2C-261.1,203.8-260.4,201.5-260.4,198.9 M-258.4,200.5
		c-0.4,2.7-1.3,4.9-2.9,6.6l-1.3,1.1c-1.4,1-3,1.6-4.6,1.6c-1.7,0-3.2-0.6-4.4-1.7c-1.5-1.4-2.2-3.3-2.2-5.7c0-0.6,0-1.2,0.1-1.8
		c0.4-3.1,1.6-5.5,3.4-7.1c1.6-1.4,3.4-2.1,5.4-2.1c1.8,0,3.2,0.6,4.5,1.8c1.4,1.4,2.1,3.3,2.1,5.7
		C-258.3,199.2-258.4,199.8-258.4,200.5z"/>
	<path class="st0" d="M-266,203.9c8.4,14.1,55.1,13.1,54.1-7.8l0.2,0.9c1.9,22.3-48.7,21.7-54.1,7.9L-266,203.9z"/>
	<g>
		<path class="st0" d="M-258.4,204.5l1-7.3h2l-1,7.5c-0.1,0.4-0.1,0.7-0.1,1c0,1.6,0.7,2.3,2.1,2.3c0.8,0,1.5-0.4,2.2-1.1
			c0.4-0.5,0.8-1,1-1.5l1.2-8.2h2l-1.3,9.2c-0.1,0.5-0.1,1-0.1,1.4c0,0.7,0.1,1.3,0.2,1.7h-1.7c-0.2-0.5-0.3-1-0.3-1.6
			c-1,1.2-2.3,1.8-3.6,1.8c-1,0-1.8-0.3-2.5-0.9c-0.7-0.7-1.1-1.7-1.1-3.1C-258.4,205.3-258.4,204.9-258.4,204.5z"/>
	</g>
	<g>
		<path class="st0" d="M-237.1,197.2l-1.3,8.9c-0.1,0.7-0.2,1.3-0.2,1.8c0,0.4,0.1,0.9,0.2,1.6h-1.8c-0.2-0.4-0.3-0.9-0.3-1.4
			c-1,1.1-2.2,1.6-3.5,1.6c-1.2,0-2.1-0.5-2.7-1.4c-0.7-0.9-1-2.1-1-3.7c0-0.6,0-1.2,0.1-1.8c0.3-2.2,1.1-3.8,2.4-4.8
			c0.9-0.7,1.9-1,3-1c1.3,0,2.3,0.3,3,0.9l0.2-0.7H-237.1z M-239.5,199.8c-0.7-0.7-1.6-1-2.8-1c-0.7,0-1.4,0.3-2,0.9
			c-0.7,0.8-1.2,2-1.4,3.6c-0.1,0.5-0.1,1.1-0.1,1.5c0,2.2,0.7,3.3,2,3.3c0.7,0,1.4-0.3,2.1-0.8c0.6-0.5,1-1,1.3-1.5L-239.5,199.8z"
			/>
	</g>
	<g>
		<path class="st0" d="M-232.3,190.5l-2.1,15.1c0,0.3-0.1,0.6-0.1,0.8c0,0.9,0.3,1.5,1,1.6l-0.2,1.7c-0.8,0-1.5-0.3-2-0.9
			s-0.8-1.4-0.8-2.4c0-0.3,0-0.5,0-0.8l2.1-15.2L-232.3,190.5L-232.3,190.5z"/>
	</g>
	<g>
		<path class="st0" d="M-228.9,197.2l-1.2,8.4c0,0.3-0.1,0.6-0.1,0.8c0,0.9,0.3,1.5,1,1.6l-0.2,1.7c-0.8,0-1.5-0.3-2-0.9
			s-0.8-1.4-0.8-2.4c0-0.3,0-0.5,0.1-0.8l1.2-8.5L-228.9,197.2L-228.9,197.2z M-228.1,193.7c0,0.3-0.2,0.6-0.4,0.9
			c-0.3,0.3-0.6,0.4-0.9,0.4c-0.3,0-0.6-0.1-0.8-0.4c-0.2-0.2-0.3-0.5-0.3-0.9s0.2-0.7,0.4-0.9c0.3-0.2,0.6-0.4,0.9-0.4
			c0.3,0,0.6,0.1,0.8,0.3C-228.2,193.1-228.1,193.4-228.1,193.7z"/>
	</g>
	<g>
		<path class="st0" d="M-218.6,200.6c-0.1,1-0.5,1.8-1.2,2.5c-0.7,0.6-1.5,1-2.5,1.2c-0.6,0.1-1.2,0.2-1.8,0.2
			c-0.7,0-1.5-0.1-2.2-0.2c-0.1,2.5,0.8,3.7,2.7,3.7c1.1,0,2-0.3,3-1l0.9,1.4c-1.1,0.9-2.5,1.4-4.1,1.4c-1.2,0-2.2-0.4-3-1.2
			c-1-1-1.4-2.3-1.4-4.1c0-0.3,0-0.6,0-1c0.2-2.2,0.8-3.8,1.9-4.9c1-1,2.2-1.5,3.7-1.5c1.3,0,2.3,0.3,3.1,1
			C-218.9,198.7-218.5,199.5-218.6,200.6z M-220.8,200.8c0-0.1,0-0.2,0-0.3c0-0.6-0.2-1-0.7-1.4c-0.4-0.2-0.8-0.4-1.3-0.4
			c-1.8,0-2.9,1.4-3.3,4.1c0.4,0.1,0.9,0.2,1.7,0.2c0.5,0,0.9,0,1.3-0.1C-221.7,202.7-220.9,202-220.8,200.8z"/>
	</g>
	<polygon class="st0" points="-218.4,197.1 -216.2,197.1 -209.9,209.7 -212,209.7 	"/>
</g>
<g>
	<path class="st0" d="M-297,208.2c0,0.1-0.1,0.2-0.1,0.2s-0.1,0.1-0.2,0.1c-0.1,0-0.2,0-0.3,0.1c-0.1,0-0.3,0-0.4,0
		c-0.2,0-0.3,0-0.5,0c-0.1,0-0.2,0-0.3-0.1c-0.1,0-0.1-0.1-0.2-0.1c0-0.1-0.1-0.1-0.1-0.2l-2.4-8.7l0,0l-2.2,8.7
		c0,0.1,0,0.2-0.1,0.2c0,0-0.1,0.1-0.2,0.1c-0.1,0-0.2,0-0.3,0.1c-0.1,0-0.3,0-0.5,0s-0.4,0-0.5,0s-0.2,0-0.3-0.1
		c-0.1,0-0.1-0.1-0.2-0.1c0-0.1-0.1-0.1-0.1-0.2l-3-10.6c0-0.1-0.1-0.2-0.1-0.3s0-0.1,0.1-0.2c0.1,0,0.1-0.1,0.2-0.1
		c0.1,0,0.3,0,0.5,0c0.2,0,0.3,0,0.4,0c0.1,0,0.2,0,0.2,0c0.1,0,0.1,0.1,0.1,0.1s0,0.1,0,0.2l2.6,9.7l0,0l2.5-9.6
		c0-0.1,0-0.1,0.1-0.2s0.1-0.1,0.1-0.1c0.1,0,0.1,0,0.3-0.1c0.2-0.1,0.3,0,0.4,0c0.2,0,0.3,0,0.4,0c0.1,0,0.2,0,0.2,0.1
		c0.1,0,0.1,0.1,0.1,0.1s0,0.1,0.1,0.2l2.6,9.6l0,0l2.5-9.6c0-0.1,0-0.1,0.1-0.2l0.1-0.1c0.1,0,0.1,0,0.2-0.1c0.1-0.1,0.2,0,0.4,0
		c0.2,0,0.3,0,0.4,0c0.1,0,0.2,0,0.2,0.1c0,0,0.1,0.1,0.1,0.2s0,0.2,0,0.3L-297,208.2z"/>
	<path class="st0" d="M-290.3,197.6c0,0.3-0.1,0.6-0.2,0.7s-0.4,0.2-0.7,0.2c-0.3,0-0.6-0.1-0.7-0.2c-0.1-0.1-0.2-0.4-0.2-0.7
		c0-0.3,0.1-0.6,0.2-0.7c0.1-0.1,0.4-0.2,0.7-0.2c0.3,0,0.6,0.1,0.7,0.2S-290.3,197.3-290.3,197.6z M-290.5,208.3v0.1l-0.1,0.1
		c-0.1,0-0.1,0-0.2,0.1c-0.1,0-0.2,0-0.4,0c-0.1,0-0.3,0-0.4,0c-0.1,0-0.2,0-0.2-0.1s-0.1-0.1-0.1-0.1v-0.1v-8v-0.1l0.1-0.1
		c0.1,0,0.1,0,0.2-0.1c0.1,0,0.2,0,0.4,0c0.1,0,0.3,0,0.4,0c0.1,0,0.2,0,0.2,0.1c0.1,0,0.1,0.1,0.1,0.1v0.1V208.3z"/>
	<path class="st0" d="M-281.2,208.3v0.1l-0.1,0.1c-0.1,0-0.1,0-0.2,0.1c-0.1,0-0.2,0-0.4,0c-0.2,0-0.3,0-0.4,0c-0.1,0-0.2,0-0.3,0
		s-0.1,0-0.2-0.1l-0.1-0.1l-3.4-4.4v4.4v0.1l-0.1,0.1c-0.1,0-0.1,0-0.2,0.1c-0.1,0-0.2,0-0.4,0c-0.1,0-0.3,0-0.4,0
		c-0.1,0-0.2,0-0.2-0.1s-0.1-0.1-0.1-0.1v-0.1v-11.9v-0.1l0.1-0.1c0.1,0,0.1,0,0.2-0.1c0.1,0,0.2,0,0.4,0c0.1,0,0.3,0,0.4,0
		c0.1,0,0.2,0,0.2,0.1c0.1,0,0.1,0.1,0.1,0.1v0.1v7.3l3-3.3c0-0.1,0.1-0.1,0.2-0.1c0.1,0,0.1-0.1,0.2-0.1c0.1,0,0.2,0,0.3-0.1
		c0.1,0,0.2,0,0.4,0c0.1,0,0.3,0,0.4,0c0.1,0,0.2,0,0.2,0c0.1,0,0.1,0,0.1,0.1s0,0.1,0,0.1c0,0.1,0,0.1-0.1,0.2
		c-0.1,0.1-0.1,0.2-0.2,0.2l-2.9,2.9l3.3,4.2c0.1,0.1,0.1,0.2,0.2,0.2C-281.2,208.2-281.2,208.3-281.2,208.3z"/>
	<path class="st0" d="M-277.8,197.6c0,0.3-0.1,0.6-0.2,0.7s-0.4,0.2-0.7,0.2c-0.3,0-0.6-0.1-0.7-0.2c-0.1-0.1-0.2-0.4-0.2-0.7
		c0-0.3,0.1-0.6,0.2-0.7c0.1-0.1,0.4-0.2,0.7-0.2c0.3,0,0.6,0.1,0.7,0.2S-277.8,197.3-277.8,197.6z M-278,208.3v0.1l-0.1,0.1
		c-0.1,0-0.1,0-0.2,0.1c-0.1,0-0.2,0-0.4,0c-0.1,0-0.3,0-0.4,0c-0.1,0-0.2,0-0.2-0.1s-0.1-0.1-0.1-0.1v-0.1v-8v-0.1l0.1-0.1
		c0.1,0,0.1,0,0.2-0.1c0.1,0,0.2,0,0.4,0c0.1,0,0.3,0,0.4,0c0.1,0,0.2,0,0.2,0.1c0.1,0,0.1,0.1,0.1,0.1v0.1V208.3z"/>
</g>
</svg>
